<!DOCTYPE svg PUBLIC "-//W3C//DTD SVG 1.1//EN" "http://www.w3.org/Graphics/SVG/1.1/DTD/svg11.dtd">
<!-- Uploaded to: SVG Repo, www.svgrepo.com, Transformed by: SVG Repo Mixer Tools -->
<svg fill="#ffffff" width="125px" height="125px" viewBox="0 0 32.00 32.00" version="1.1" xmlns="http://www.w3.org/2000/svg" stroke="#ffffff" transform="rotate(270)" stroke-width="1.8239999999999998">
<g id="SVGRepo_bgCarrier" stroke-width="0"/>
<g id="SVGRepo_tracerCarrier" stroke-linecap="round" stroke-linejoin="round" stroke="#CCCCCC" stroke-width="0.704"> <title>parenleft</title> <path d="M12.438 0.031h-2.531c-1.031 2.375-1.813 4.938-2.344 7.719s-0.813 5.625-0.813 8.531c0 2.719 0.25 5.344 0.688 7.875 0.469 2.5 1.063 4.688 1.844 6.531h2.406c-0.813-1.906-1.469-4.188-1.938-6.719-0.438-2.563-0.656-5.219-0.656-7.969 0-2.969 0.281-5.875 0.875-8.656 0.625-2.781 1.438-5.188 2.469-7.313z"/> </g>
<g id="SVGRepo_iconCarrier"> <title>parenleft</title> <path d="M12.438 0.031h-2.531c-1.031 2.375-1.813 4.938-2.344 7.719s-0.813 5.625-0.813 8.531c0 2.719 0.25 5.344 0.688 7.875 0.469 2.5 1.063 4.688 1.844 6.531h2.406c-0.813-1.906-1.469-4.188-1.938-6.719-0.438-2.563-0.656-5.219-0.656-7.969 0-2.969 0.281-5.875 0.875-8.656 0.625-2.781 1.438-5.188 2.469-7.313z"/> </g>
</svg>